<svg width="72" height="72" viewBox="0 0 72 72" fill="none" xmlns="http://www.w3.org/2000/svg">
<g filter="url(#filter0_d)">
<circle cx="36" cy="31" r="22" fill="white"/>
<path d="M36.0009 26.377C33.4469 26.377 31.3779 28.447 31.3779 31C31.3779 33.554 33.4469 35.624 36.0009 35.624C38.5529 35.624 40.6239 33.554 40.6239 31C40.6239 28.447 38.5529 26.377 36.0009 26.377ZM36.0009 34.004C34.3419 34.004 32.9969 32.659 32.9969 31.001C32.9969 29.342 34.3419 27.998 36.0009 27.998C37.6599 27.998 39.0029 29.342 39.0029 31.001C39.0029 32.659 37.6599 34.004 36.0009 34.004Z" fill="url(#paint0_linear)"/>
<path d="M40.8079 27.285C41.4033 27.285 41.8859 26.8024 41.8859 26.207C41.8859 25.6116 41.4033 25.129 40.8079 25.129C40.2125 25.129 39.7299 25.6116 39.7299 26.207C39.7299 26.8024 40.2125 27.285 40.8079 27.285Z" fill="url(#paint1_linear)"/>
<path d="M44.5349 25.111C44.0659 23.902 43.1109 22.946 41.9019 22.479C41.2029 22.216 40.4639 22.075 39.7159 22.059C38.7529 22.017 38.4479 22.005 36.0059 22.005C33.5639 22.005 33.2509 22.005 32.2959 22.059C31.5499 22.074 30.8109 22.215 30.1119 22.479C28.9019 22.946 27.9469 23.902 27.4789 25.111C27.2159 25.811 27.0749 26.549 27.0599 27.297C27.0169 28.259 27.0039 28.564 27.0039 31.007C27.0039 33.449 27.0039 33.76 27.0599 34.717C27.0749 35.465 27.2159 36.203 27.4789 36.904C27.9479 38.112 28.9029 39.068 30.1129 39.536C30.8089 39.808 31.5479 39.962 32.2979 39.986C33.2609 40.028 33.5659 40.041 36.0079 40.041C38.4499 40.041 38.7629 40.041 39.7179 39.986C40.4649 39.971 41.2039 39.829 41.9039 39.567C43.1129 39.098 44.0679 38.143 44.5369 36.934C44.7999 36.234 44.9409 35.496 44.9559 34.748C44.9989 33.786 45.0119 33.481 45.0119 31.038C45.0119 28.595 45.0119 28.285 44.9559 27.328C44.9429 26.57 44.8029 25.819 44.5349 25.111ZM43.3169 34.643C43.3099 35.219 43.2059 35.79 43.0059 36.331C42.7009 37.118 42.0799 37.74 41.2939 38.042C40.7589 38.241 40.1949 38.345 39.6239 38.353C38.6739 38.397 38.4059 38.408 35.9699 38.408C33.5319 38.408 33.2829 38.408 32.3149 38.353C31.7459 38.346 31.1799 38.241 30.6459 38.042C29.8569 37.741 29.2319 37.119 28.9269 36.331C28.7309 35.797 28.6249 35.232 28.6159 34.662C28.5729 33.712 28.5629 33.444 28.5629 31.008C28.5629 28.571 28.5629 28.322 28.6159 27.353C28.6229 26.777 28.7269 26.207 28.9269 25.666C29.2319 24.877 29.8569 24.256 30.6459 23.954C31.1799 23.756 31.7459 23.651 32.3149 23.643C33.2659 23.6 33.5329 23.588 35.9699 23.588C38.4069 23.588 38.6569 23.588 39.6239 23.643C40.1949 23.65 40.7589 23.755 41.2939 23.954C42.0799 24.257 42.7009 24.879 43.0059 25.666C43.2019 26.2 43.3079 26.765 43.3169 27.335C43.3599 28.286 43.3709 28.553 43.3709 30.99C43.3709 33.426 43.3709 33.688 43.3279 34.644H43.3169V34.643Z" fill="url(#paint2_linear)"/>
</g>
<defs>
<filter id="filter0_d" x="0" y="0" width="72" height="72" filterUnits="userSpaceOnUse" color-interpolation-filters="sRGB">
<feFlood flood-opacity="0" result="BackgroundImageFix"/>
<feColorMatrix in="SourceAlpha" type="matrix" values="0 0 0 0 0 0 0 0 0 0 0 0 0 0 0 0 0 0 127 0" result="hardAlpha"/>
<feOffset dy="5"/>
<feGaussianBlur stdDeviation="7"/>
<feComposite in2="hardAlpha" operator="out"/>
<feColorMatrix type="matrix" values="0 0 0 0 0 0 0 0 0 0 0 0 0 0 0 0 0 0 0.07 0"/>
<feBlend mode="normal" in2="BackgroundImageFix" result="effect1_dropShadow"/>
<feBlend mode="normal" in="SourceGraphic" in2="effect1_dropShadow" result="shape"/>
</filter>
<linearGradient id="paint0_linear" x1="36.0079" y1="22.005" x2="36.0079" y2="40.041" gradientUnits="userSpaceOnUse">
<stop stop-color="#3E3E3E"/>
<stop offset="1" stop-color="#3B427D"/>
</linearGradient>
<linearGradient id="paint1_linear" x1="36.0079" y1="22.005" x2="36.0079" y2="40.041" gradientUnits="userSpaceOnUse">
<stop stop-color="#3E3E3E"/>
<stop offset="1" stop-color="#3B427D"/>
</linearGradient>
<linearGradient id="paint2_linear" x1="36.0079" y1="22.005" x2="36.0079" y2="40.041" gradientUnits="userSpaceOnUse">
<stop stop-color="#3E3E3E"/>
<stop offset="1" stop-color="#3B427D"/>
</linearGradient>
</defs>
</svg>
