<svg width="72" height="72" viewBox="0 0 72 72" fill="none" xmlns="http://www.w3.org/2000/svg">
<g filter="url(#filter0_d)">
<circle cx="36" cy="31" r="22" fill="white"/>
<path d="M45 40H41V33.25C41 32.1914 39.8121 31.3058 38.7535 31.3058C37.6949 31.3058 37 32.1914 37 33.25V40H33V28H37V30C37.6623 28.9286 39.3564 28.2373 40.525 28.2373C42.9965 28.2373 45 30.2786 45 32.75V40ZM31 40H27V28H31V40ZM29 22C30.1046 22 31 22.8954 31 24C31 25.1046 30.1046 26 29 26C27.8954 26 27 25.1046 27 24C27 22.8954 27.8954 22 29 22Z" fill="#3E3E3E"/>
</g>
<defs>
<filter id="filter0_d" x="0" y="0" width="72" height="72" filterUnits="userSpaceOnUse" color-interpolation-filters="sRGB">
<feFlood flood-opacity="0" result="BackgroundImageFix"/>
<feColorMatrix in="SourceAlpha" type="matrix" values="0 0 0 0 0 0 0 0 0 0 0 0 0 0 0 0 0 0 127 0" result="hardAlpha"/>
<feOffset dy="5"/>
<feGaussianBlur stdDeviation="7"/>
<feColorMatrix type="matrix" values="0 0 0 0 0 0 0 0 0 0 0 0 0 0 0 0 0 0 0.07 0"/>
<feBlend mode="normal" in2="BackgroundImageFix" result="effect1_dropShadow"/>
<feBlend mode="normal" in="SourceGraphic" in2="effect1_dropShadow" result="shape"/>
</filter>
</defs>
</svg>
